# xmcd
# Track frame offsets:
# 150
# 19853
# 37853
# 57627
# 74835
# 94579
# 110332
# 127565
# 149693
# 164458
# 190715
# 216024
# 238606
# 256934
#
# Disc length: 3745 seconds
# Revision: 0
# Processed by: cddbd v1.5.1PL0 Copyright (c) Steve Scherf et al.
# Submitted via: VisiTrax 2.9.10.220 - For more info visit www.synapsa.com
#
DISCID=c40e9f0e
DTITLE=Morrison, Van - Down The Road
DYEAR=2002
DGENRE=
TTITLE0=Down the Road
TTITLE1=Meet Me in the Indian Summer
TTITLE2=Steal My Heart Away
TTITLE3=Hey Mr. DJ
TTITLE4=Talk Is Cheap
TTITLE5=Choppin' Wood
TTITLE6=What Makes the Irish Heart Beat
TTITLE7=All Work and No Play
TTITLE8=Whatever Happened to PJ Proby?
TTITLE9=The Beauty of the Days Gone By
TTITLE10=Georgia on My Mind
TTITLE11=Only a Dream
TTITLE12=Man Has to Struggle
TTITLE13=Evening Shadows
EXTD=
EXTT0=
EXTT1=
EXTT2=
EXTT3=
EXTT4=
EXTT5=
EXTT6=
EXTT7=
EXTT8=
EXTT9=
EXTT10=
EXTT11=
EXTT12=
EXTT13=
PLAYORDER=
